<?xml version="1.0" standalone="no"?>
<!DOCTYPE svg PUBLIC "-//W3C//DTD SVG 20010904//EN"
        "http://www.w3.org/TR/2001/REC-SVG-20010904/DTD/svg10.dtd">
<svg id="autograph"
        version="1.0" xmlns="http://www.w3.org/2000/svg"
     width="500pt" height="400pt" viewBox="0 0 500 400"
     preserveAspectRatio="xMidYMid meet">

    <g transform="translate(0, 400) scale(0.1, -0.1)"
       fill="#000000" stroke="none">
        <path class="autograph__path"
                d="M675 2570 c-9 -17 -38 -115 -65 -219 -64 -247 -74 -271 -110 -271 -49 0 -120 -13 -120 -21 0 -5 29 -9 65 -9 36 0 65 -3 65 -6 0 -3 -14 -25 -31 -50 -32 -48 -91 -84 -136 -84 -34 0 -88 31 -103 60 -6 12 -14 19 -17 16 -10 -10 40 -78 71 -97 41 -25 69 -24 118 3 34 20 107 110 120 150 3 9 40 14 131 16 l126 4 7 -29 c29 -130 49 -163 98 -163 38 0 62 22 76 69 11 39 5 40 -15 2 -33 -65 -94 -44 -120 41 -21 71 -20 78 14 78 16 0 36 3 45 6 32 12 15 24 -33 24 -57 0 -51 -16 -77 200 -33 283 -65 365 -109 280z m49 -105 c23 -118 59 -365 55 -370 -2 -2 -56 -7 -118 -11 -110 -7 -114 -6 -107 12 25 62 49 140 86 285 23 90 44 168 47 172 10 17 21 -10 37 -88z"/>
        <path class="autograph__path"
                d="M985 2100 c-14 -23 33 -190 54 -190 5 0 16 30 24 66 9 36 18 68 21 71 10 11 24 -8 36 -52 17 -62 45 -95 78 -95 l27 1 -27 14 c-18 10 -33 33 -47 72 -27 75 -35 87 -54 91 -12 3 -21 -12 -33 -57 -10 -34 -21 -61 -25 -61 -4 0 -13 31 -19 70 -12 69 -22 90 -35 70z"/>
        <path class="autograph__path"
                d="M1285 2508 c-4 -10 5 -67 19 -128 14 -61 26 -113 26 -115 0 -3 -20 -5 -43 -5 -43 0 -44 1 -56 43 -7 23 -18 48 -23 55 -19 23 -38 -7 -38 -59 l0 -49 -37 0 c-21 0 -56 5 -78 10 -50 11 -56 6 -16 -14 16 -9 53 -16 80 -16 50 0 50 0 56 -37 17 -100 48 -212 65 -241 37 -60 106 -68 134 -14 l14 27 11 -27 c6 -16 15 -28 21 -28 11 0 16 20 24 95 9 77 21 74 51 -14 27 -83 43 -101 87 -101 21 0 20 2 -9 20 -26 15 -36 32 -52 87 -11 38 -27 77 -36 88 -15 20 -15 20 -30 1 -8 -10 -17 -45 -21 -77 -4 -33 -10 -59 -13 -59 -4 0 -17 64 -28 142 -16 106 -18 145 -10 150 9 5 7 11 -4 20 -9 8 -26 58 -39 121 -25 115 -43 156 -55 125z m-76 -199 c15 -42 14 -59 -3 -59 -12 0 -26 40 -26 76 0 25 18 14 29 -17z m20 -156 c-1 -43 -3 -69 -6 -58 -32 133 -32 135 -12 135 17 0 19 -7 18 -77z m111 73 c0 -2 9 -48 20 -101 11 -53 20 -112 20 -130 0 -51 -51 -85 -90 -58 -41 29 -51 73 -44 188 l7 105 43 0 c24 0 44 -2 44 -4z"/>
        <path class="autograph__path"
                d="M1615 2075 c-35 -34 -35 -102 1 -144 21 -25 34 -31 64 -31 51 0 80 35 80 96 0 89 -88 137 -145 79z m90 -19 c45 -45 46 -120 1 -132 -48 -12 -96 41 -96 105 0 52 54 68 95 27z"/>
        <path class="autograph__path"
                d="M1798 2095 c-6 -6 18 -117 34 -157 15 -39 25 -35 39 15 23 84 25 91 36 94 6 2 19 -21 28 -52 19 -66 44 -95 83 -95 l27 0 -30 18 c-22 14 -36 36 -55 88 -20 54 -30 69 -45 69 -15 0 -23 -11 -33 -45 -26 -88 -28 -90 -41 -25 -20 96 -25 108 -43 90z"/>
        <path class="autograph__path"
                d="M2150 2059 c0 -22 -5 -60 -11 -84 -22 -87 -62 -82 -73 8 -11 84 -16 97 -38 97 -15 0 -18 -3 -10 -13 6 -7 14 -41 18 -76 13 -121 79 -137 114 -27 l13 39 49 -193 c57 -228 69 -326 44 -365 -9 -14 -23 -25 -30 -25 -43 0 -109 97 -85 126 9 11 8 14 -4 14 -47 0 -35 -82 18 -129 43 -38 74 -39 106 -5 21 22 24 37 27 112 3 77 -2 108 -41 262 -25 96 -51 203 -58 238 -14 73 -39 87 -39 21z"/>
        <path class="autograph__path"
                d="M2540 2612 c0 -21 -8 -32 -32 -46 -136 -78 -199 -203 -153 -301 9 -17 30 -45 48 -61 l32 -29 -27 30 c-32 35 -58 94 -58 130 0 36 26 95 58 129 31 33 110 86 128 86 7 0 14 -24 18 -57 8 -64 71 -389 81 -415 4 -11 0 -18 -14 -23 -28 -9 -26 -23 3 -35 29 -10 31 -15 41 -59 6 -30 5 -33 -11 -27 -15 5 -14 3 3 -11 12 -10 28 -33 34 -50 13 -39 39 -45 31 -8 -4 23 -1 25 30 25 61 0 88 57 52 108 -9 13 -14 24 -13 25 2 1 34 17 72 36 128 63 183 158 175 300 -3 60 -11 88 -33 129 -65 119 -214 170 -375 127 -53 -14 -69 -10 -70 18 0 4 -4 7 -10 7 -5 0 -10 -13 -10 -28z m313 -36 c48 -20 105 -73 129 -120 26 -50 35 -163 19 -223 -18 -67 -68 -124 -144 -162 l-66 -34 -63 15 -63 15 -31 139 c-31 136 -67 355 -60 361 2 2 32 10 67 18 71 16 162 13 212 -9z m-138 -536 c17 -7 14 -9 -13 -9 -20 -1 -31 3 -27 9 7 12 13 12 40 0z m65 -39 c14 -26 13 -64 -2 -79 -21 -21 -68 -15 -77 11 -23 64 -22 75 6 80 55 8 62 7 73 -12z"/>
        <path class="autograph__path__special"
                d="M3087 2134 c-7 -8 2 -35 21 -56 10 -12 13 -32 10 -67 -3 -28 -1 -48 4 -45 4 3 8 25 8 48 0 41 2 44 32 50 17 3 35 3 39 -1 4 -5 12 -39 18 -76 5 -38 15 -75 22 -83 19 -23 55 -16 83 17 l26 31 21 -26 c26 -34 62 -34 88 0 12 15 21 22 21 16 0 -6 14 -19 31 -28 36 -18 74 -12 105 17 l21 20 6 -98 c8 -121 38 -290 72 -407 29 -99 41 -126 56 -126 15 0 8 40 -34 200 -67 251 -92 423 -72 499 6 27 5 33 -6 29 -8 -2 -15 -21 -17 -40 -4 -42 -26 -65 -69 -74 -26 -5 -37 -1 -57 19 -32 32 -33 69 -4 97 17 15 35 20 80 20 45 0 58 3 58 15 0 20 -81 20 -120 0 -32 -17 -60 -61 -60 -97 -1 -27 -18 -52 -42 -61 -25 -9 -46 27 -60 102 -8 40 -16 61 -25 61 -11 0 -13 -10 -7 -47 11 -68 8 -86 -17 -105 -44 -36 -73 -10 -84 74 -7 67 -30 90 -76 81 -24 -4 -30 -1 -40 21 -12 26 -20 31 -32 20z"/>
        <path class="autograph__path"
                d="M3708 2095 c-6 -6 18 -117 34 -157 15 -39 25 -35 39 15 23 84 25 91 36 94 6 2 19 -21 28 -52 19 -66 44 -95 83 -95 l27 0 -30 18 c-22 14 -36 36 -55 88 -20 54 -30 69 -45 69 -15 0 -23 -11 -33 -45 -26 -88 -28 -90 -41 -25 -20 96 -25 108 -43 90z"/>
        <path class="autograph__path"
                d="M4015 2103 c-67 -16 -103 -118 -62 -174 29 -39 90 -44 112 -10 4 8 13 6 28 -4 33 -23 63 -18 90 14 l24 30 12 -25 c17 -39 28 -28 44 42 9 36 18 68 21 71 10 11 24 -8 36 -52 17 -62 45 -95 78 -95 l27 1 -27 14 c-18 10 -33 33 -47 72 -27 75 -35 87 -54 91 -12 3 -21 -12 -33 -57 -10 -34 -21 -61 -25 -61 -4 0 -13 31 -19 70 -6 38 -16 72 -20 75 -17 11 -21 -17 -10 -71 10 -46 9 -59 -4 -78 -17 -28 -43 -36 -74 -25 -19 7 -22 16 -22 58 0 51 -15 75 -31 50 -5 -8 -6 -27 -3 -44 13 -56 11 -60 -28 -63 -43 -4 -68 23 -68 74 0 64 75 111 110 69 14 -16 40 -20 40 -6 0 22 -57 42 -95 34z m62 -120 c-3 -10 -5 -2 -5 17 0 19 2 27 5 18 2 -10 2 -26 0 -35z"/>
        <path class="autograph__path"
                d="M4436 2069 c-29 -35 -32 -64 -12 -114 32 -76 131 -76 156 0 36 109 -75 197 -144 114z m95 -18 c46 -46 38 -131 -12 -131 -28 0 -68 40 -80 81 -11 34 -10 41 6 59 25 28 52 25 86 -9z"/>
        <path class="autograph__path__dot"
                d="M3302 2188 c2 -15 11 -24 26 -26 20 -3 23 0 20 20 -2 15 -11 24 -26 26 -20 3 -23 0 -20 -20z"/>
    </g>
</svg>
